<?xml version="1.0" encoding="UTF-8"?>
<svg id="Capa_10" data-name="Capa 10" xmlns="http://www.w3.org/2000/svg" viewBox="0 0 295 295">
  <defs>
    <style>
      .cls-1 {
        fill: #122db2;
      }

      .cls-1, .cls-2, .cls-3 {
        stroke-width: 0px;
      }

      .cls-2 {
        fill: #f9b420;
      }

      .cls-3 {
        fill: #e81e50;
      }
    </style>
  </defs>
  <polyline class="cls-2" points="143.1 36.45 157.42 36.45 154.47 99.64 145.21 99.64"/>
  <polyline class="cls-3" points="198.72 48.83 211.16 55.93 177.25 109.34 169.2 104.74"/>
  <polyline class="cls-1" points="240.87 87.17 248.15 99.51 192.22 129.06 187.51 121.08"/>
  <polyline class="cls-2" points="258.46 141.37 258.65 155.69 195.43 153.61 195.3 144.34"/>
  <polyline class="cls-3" points="246.84 197.15 239.91 209.68 186.04 176.52 190.53 168.41"/>
  <polyline class="cls-1" points="209.09 239.83 196.85 247.27 166.53 191.75 174.45 186.93"/>
  <polyline class="cls-2" points="155.14 258.16 140.82 258.55 142.03 195.3 151.29 195.05"/>
  <polyline class="cls-3" points="99.2 247.31 86.57 240.55 118.99 186.23 127.17 190.61"/>
  <polyline class="cls-1" points="56.01 210.15 48.4 198.02 103.49 166.93 108.42 174.78"/>
  <polyline class="cls-2" points="36.94 156.46 36.35 142.14 99.61 142.48 99.99 151.74"/>
  <polyline class="cls-3" points="47.01 100.37 53.6 87.65 108.36 119.32 104.1 127.56"/>
  <polyline class="cls-1" points="83.57 56.67 95.6 48.9 127.44 103.56 119.66 108.59"/>
</svg>