<?xml version="1.0" encoding="UTF-8"?>
<svg id="Capa_4" data-name="Capa 4" xmlns="http://www.w3.org/2000/svg" viewBox="0 0 1366 768">
  <defs>
    <style>
      .cls-1 {
        fill: #122db2;
      }

      .cls-1, .cls-2, .cls-3 {
        stroke-width: 0px;
      }

      .cls-2 {
        fill: #f9b420;
      }

      .cls-3 {
        fill: #e81e50;
      }
    </style>
  </defs>
  <polygon class="cls-3" points="19.24 111.56 53.51 111.56 59.29 281.78 75.31 281.78 78.42 586.46 22.36 586.46 19.24 111.56"/>
  <polygon class="cls-1" points="107.79 111.56 126.48 111.56 126.48 278.71 150.95 274.63 150.5 595.31 100.22 595.31 100.22 283.14 107.79 283.48 107.79 111.56"/>
  <polygon class="cls-2" points="182.54 111.56 197.22 111.56 197.22 278.54 227.92 272.93 223.92 600.76 168.52 600.76 174.53 271.39 182.54 270.88 182.54 111.56"/>
  <polygon class="cls-3" points="255.96 111.56 300.01 111.56 305.35 570.63 249.28 570.63 245.28 270.37 260.63 268.33 255.96 111.56"/>
  <polygon class="cls-2" points="1060.65 111.56 1094.92 111.56 1100.7 281.78 1116.72 281.78 1119.83 586.46 1063.77 586.46 1060.65 111.56"/>
  <polygon class="cls-3" points="1149.2 111.56 1167.89 111.56 1167.89 278.71 1192.36 274.63 1191.91 595.31 1141.64 595.31 1141.64 283.14 1149.2 283.48 1149.2 111.56"/>
  <polygon class="cls-1" points="1223.95 111.56 1238.63 111.56 1238.63 278.54 1269.33 272.93 1265.33 600.76 1209.93 600.76 1215.94 271.39 1223.95 270.88 1223.95 111.56"/>
  <polygon class="cls-2" points="1297.37 111.56 1341.42 111.56 1346.76 570.63 1290.69 570.63 1286.69 270.37 1302.04 268.33 1297.37 111.56"/>
  <polygon class="cls-1" points="312.02 111.56 344.06 111.56 344.06 281.1 369.42 285.18 374.09 591.05 318.03 591.05 312.02 111.56"/>
  <polygon class="cls-2" points="835.14 111.56 867.17 111.56 867.17 281.1 892.53 285.18 897.21 591.05 841.14 591.05 835.14 111.56"/>
  <polygon class="cls-2" points="401.45 111.56 420.81 111.56 420.81 290.8 447.51 290.8 443.5 600.76 388.77 600.76 391.44 285.69 400.79 287.22 401.45 111.56"/>
  <polygon class="cls-3" points="478.21 111.56 523.59 111.56 532.93 575.22 469.53 575.22 464.19 290.29 486.88 290.29 478.21 111.56"/>
  <polygon class="cls-3" points="922.71 111.56 942.06 111.56 942.06 290.8 968.76 290.8 964.76 600.76 910.03 600.76 912.7 285.69 922.04 287.22 922.71 111.56"/>
  <polygon class="cls-1" points="999.46 111.56 1044.85 111.56 1054.19 575.22 990.78 575.22 985.45 290.29 1008.14 290.29 999.46 111.56"/>
  <polygon class="cls-1" points="556.29 111.56 587.66 111.56 582.32 300.5 598.34 300.5 593 595.31 548.95 595.31 556.29 111.56"/>
  <polygon class="cls-2" points="645.73 111.56 663.08 111.56 663.08 297.44 679.1 300.5 674.43 586.46 613.03 586.46 619.03 303.05 646.06 303.56 645.73 111.56"/>
  <polygon class="cls-3" points="719.81 115.65 737.17 115.65 737.17 297.95 747.18 297.95 747.18 595.31 698.45 595.31 695.79 301.01 717.81 304.07 719.81 115.65"/>
  <polygon class="cls-1" points="791.89 115.65 824.6 115.65 828.6 556.33 773.21 556.33 773.21 296.93 800.9 296.93 791.89 115.65"/>
</svg>