<?xml version="1.0" encoding="UTF-8"?>
<svg id="Capa_6" data-name="Capa 6" xmlns="http://www.w3.org/2000/svg" viewBox="0 0 295 295">
  <defs>
    <style>
      .cls-1 {
        fill: #122db2;
      }

      .cls-1, .cls-2 {
        stroke-width: 0px;
      }

      .cls-2 {
        fill: #fff;
      }
    </style>
  </defs>
  <polygon class="cls-1" points="84.56 81.09 84.56 95.89 97.46 95.89 119.41 144.53 109.07 165.47 109.84 175.43 115.71 181.81 197.93 181.81 197.93 167.26 123.88 167.26 130.14 155 178.9 155 187.46 149.13 210.44 103.17 205.59 95.26 111.5 95.26 105.5 81.09 84.56 81.09"/>
  <polygon class="cls-2" points="117.88 108.79 131.8 141.21 178.9 141.21 196.01 108.79 117.88 108.79"/>
  <polygon class="cls-1" points="118.46 187.62 126.88 187.62 134.73 195.23 134.73 206.45 126.6 213.91 118.46 213.91 110.73 206.77 110.73 195.04 118.46 187.62"/>
  <polygon class="cls-1" points="180.76 187.62 189.18 187.62 197.03 195.23 197.03 206.45 188.89 213.91 180.76 213.91 173.03 206.77 173.03 195.04 180.76 187.62"/>
</svg>