<?xml version="1.0" encoding="UTF-8"?>
<svg id="Capa_7" data-name="Capa 7" xmlns="http://www.w3.org/2000/svg" viewBox="0 0 295 295">
  <defs>
    <style>
      .cls-1 {
        fill: #122db2;
      }

      .cls-1, .cls-2 {
        stroke-width: 0px;
      }

      .cls-2 {
        fill: #fff;
      }
    </style>
  </defs>
  <polygon class="cls-1" points="182.9 102.07 182.9 128.99 160.35 147.63 133.12 147.63 110.82 130.35 110.82 102.07 124.27 86.61 137.88 81.41 157.54 81.41 168.61 86.86 182.9 102.07"/>
  <polygon class="cls-2" points="167.89 108.16 167.89 119.76 154.76 132.94 138.9 132.94 125.92 120.55 125.92 108.16 133.75 97.41 141.68 94.39 153.12 94.39 159.56 97.56 167.89 108.16"/>
  <polygon class="cls-1" points="73.8 213.59 73.8 183.46 87.41 169.67 126.39 156.39 170.99 156.39 206.73 169.84 221.2 184.99 221.2 213.59 73.8 213.59"/>
  <polygon class="cls-2" points="90.65 196.73 90.65 183.37 101.04 177.26 130.79 171.37 164.83 171.37 192.12 177.34 203.16 184.05 203.16 196.73 90.65 196.73"/>
</svg>